<?xml version="1.0" encoding="UTF-8" standalone="no"?>
<!DOCTYPE svg PUBLIC "-//W3C//DTD SVG 1.1//EN" "http://www.w3.org/Graphics/SVG/1.1/DTD/svg11.dtd">
<svg width="100%" height="100%" viewBox="0 0 1024 1024" version="1.1" xmlns="http://www.w3.org/2000/svg" xmlns:xlink="http://www.w3.org/1999/xlink" xml:space="preserve" xmlns:serif="http://www.serif.com/" style="fill-rule:evenodd;clip-rule:evenodd;stroke-linejoin:round;stroke-miterlimit:2;">
    <g transform="matrix(0.923393,0,0,0.919852,32.7442,27.909)">
        <rect x="-35.461" y="-30.341" width="1108.95" height="1113.22" style="fill:rgb(34,34,34);"/>
    </g>
    <g transform="matrix(256,0,0,256,128,601.6)">
        <path d="M0.407,0.141C0.369,0.141 0.334,0.134 0.302,0.119C0.269,0.104 0.241,0.084 0.216,0.059C0.191,0.034 0.172,0.005 0.159,-0.028C0.145,-0.06 0.138,-0.094 0.138,-0.129C0.138,-0.174 0.148,-0.214 0.168,-0.248C0.188,-0.282 0.215,-0.311 0.25,-0.334C0.285,-0.357 0.324,-0.374 0.369,-0.386C0.414,-0.397 0.46,-0.403 0.509,-0.403C0.524,-0.403 0.538,-0.403 0.551,-0.402C0.564,-0.401 0.577,-0.399 0.589,-0.396C0.586,-0.407 0.583,-0.42 0.578,-0.437C0.573,-0.454 0.569,-0.466 0.566,-0.473L0.303,-0.473C0.292,-0.473 0.285,-0.476 0.281,-0.483C0.276,-0.489 0.274,-0.495 0.274,-0.502C0.274,-0.51 0.277,-0.517 0.282,-0.523C0.286,-0.529 0.294,-0.532 0.303,-0.532L0.545,-0.532C0.544,-0.535 0.542,-0.543 0.537,-0.555C0.532,-0.566 0.527,-0.578 0.522,-0.591C0.517,-0.603 0.513,-0.611 0.511,-0.615L0.241,-0.615C0.23,-0.615 0.223,-0.618 0.219,-0.625C0.214,-0.631 0.212,-0.638 0.212,-0.645C0.212,-0.653 0.215,-0.66 0.22,-0.666C0.225,-0.671 0.232,-0.674 0.241,-0.674L0.484,-0.674C0.478,-0.685 0.475,-0.692 0.474,-0.693C0.473,-0.694 0.471,-0.698 0.468,-0.705C0.465,-0.71 0.464,-0.714 0.464,-0.719C0.464,-0.732 0.469,-0.74 0.48,-0.745C0.486,-0.747 0.491,-0.748 0.495,-0.748C0.506,-0.748 0.514,-0.743 0.52,-0.732C0.521,-0.729 0.524,-0.724 0.529,-0.716C0.534,-0.707 0.54,-0.693 0.549,-0.674L0.74,-0.674C0.751,-0.674 0.758,-0.671 0.763,-0.665C0.767,-0.658 0.769,-0.652 0.769,-0.645C0.769,-0.637 0.767,-0.63 0.762,-0.624C0.756,-0.618 0.749,-0.615 0.74,-0.615L0.576,-0.615C0.578,-0.611 0.581,-0.604 0.585,-0.593C0.589,-0.582 0.593,-0.571 0.598,-0.56C0.603,-0.549 0.606,-0.539 0.609,-0.532L0.705,-0.532C0.716,-0.532 0.723,-0.529 0.728,-0.523C0.732,-0.516 0.734,-0.509 0.734,-0.502C0.734,-0.493 0.732,-0.486 0.727,-0.481C0.721,-0.476 0.714,-0.473 0.705,-0.473L0.628,-0.473C0.633,-0.457 0.638,-0.442 0.642,-0.429C0.645,-0.415 0.649,-0.401 0.652,-0.386C0.679,-0.379 0.701,-0.373 0.718,-0.366C0.734,-0.359 0.752,-0.348 0.772,-0.333C0.781,-0.326 0.785,-0.318 0.785,-0.309C0.785,-0.303 0.783,-0.297 0.779,-0.292C0.774,-0.283 0.766,-0.279 0.756,-0.279C0.75,-0.279 0.744,-0.281 0.738,-0.285C0.717,-0.3 0.692,-0.312 0.665,-0.32C0.669,-0.295 0.672,-0.271 0.675,-0.248C0.677,-0.224 0.678,-0.201 0.678,-0.179C0.678,-0.118 0.667,-0.063 0.646,-0.015C0.624,0.034 0.593,0.072 0.553,0.1C0.512,0.127 0.464,0.141 0.407,0.141ZM0.407,0.083C0.454,0.083 0.494,0.071 0.525,0.048C0.556,0.024 0.58,-0.008 0.596,-0.049C0.612,-0.089 0.62,-0.134 0.62,-0.185C0.62,-0.234 0.614,-0.284 0.603,-0.335C0.588,-0.338 0.573,-0.34 0.557,-0.341C0.54,-0.342 0.524,-0.343 0.507,-0.343C0.451,-0.343 0.4,-0.335 0.353,-0.32C0.306,-0.305 0.269,-0.281 0.241,-0.249C0.212,-0.217 0.198,-0.176 0.198,-0.127C0.198,-0.09 0.207,-0.055 0.226,-0.023C0.245,0.009 0.27,0.035 0.302,0.054C0.333,0.073 0.368,0.083 0.407,0.083Z" style="fill:white;fill-rule:nonzero;"/>
    </g>
    <g transform="matrix(256,0,0,256,384,601.6)">
        <path d="M0.644,0.084C0.589,0.084 0.54,0.071 0.498,0.046C0.456,0.021 0.423,-0.014 0.4,-0.059C0.376,-0.104 0.364,-0.155 0.364,-0.212C0.364,-0.227 0.365,-0.243 0.367,-0.259C0.369,-0.275 0.372,-0.291 0.375,-0.308C0.34,-0.288 0.307,-0.259 0.278,-0.221C0.248,-0.182 0.222,-0.14 0.201,-0.094C0.179,-0.048 0.162,-0.003 0.15,0.042C0.149,0.049 0.146,0.054 0.141,0.059C0.136,0.063 0.13,0.065 0.123,0.065C0.114,0.065 0.107,0.063 0.101,0.058C0.094,0.053 0.091,0.046 0.091,0.037C0.091,0.036 0.091,0.034 0.092,0.033C0.092,0.031 0.092,0.029 0.093,0.027L0.267,-0.663C0.269,-0.672 0.273,-0.678 0.278,-0.681C0.283,-0.684 0.289,-0.685 0.295,-0.685C0.306,-0.685 0.315,-0.681 0.32,-0.672C0.325,-0.663 0.327,-0.655 0.324,-0.648L0.222,-0.243C0.245,-0.278 0.274,-0.309 0.308,-0.336C0.342,-0.363 0.378,-0.38 0.416,-0.387C0.44,-0.387 0.452,-0.379 0.452,-0.362C0.452,-0.357 0.451,-0.352 0.449,-0.347C0.432,-0.3 0.423,-0.255 0.423,-0.212C0.423,-0.168 0.432,-0.128 0.45,-0.092C0.467,-0.055 0.493,-0.026 0.527,-0.005C0.56,0.017 0.601,0.028 0.649,0.028C0.691,0.028 0.727,0.018 0.758,-0.002C0.788,-0.021 0.811,-0.048 0.827,-0.081C0.843,-0.114 0.851,-0.15 0.851,-0.19C0.851,-0.206 0.852,-0.22 0.853,-0.231C0.854,-0.242 0.863,-0.247 0.88,-0.247C0.893,-0.247 0.902,-0.242 0.905,-0.233C0.908,-0.223 0.91,-0.211 0.91,-0.196C0.91,-0.141 0.899,-0.092 0.878,-0.05C0.856,-0.008 0.825,0.025 0.786,0.049C0.746,0.072 0.699,0.084 0.644,0.084Z" style="fill:white;fill-rule:nonzero;"/>
    </g>
    <g transform="matrix(256,0,0,256,640,601.6)">
        <path d="M0.576,0.101C0.57,0.095 0.567,0.087 0.567,0.077C0.567,0.069 0.569,0.062 0.574,0.057C0.607,0.014 0.636,-0.032 0.66,-0.08C0.683,-0.127 0.695,-0.174 0.695,-0.22C0.695,-0.261 0.685,-0.298 0.666,-0.329C0.647,-0.36 0.621,-0.387 0.588,-0.409C0.555,-0.431 0.518,-0.448 0.477,-0.462C0.436,-0.474 0.393,-0.483 0.35,-0.488L0.279,-0.352C0.274,-0.341 0.267,-0.335 0.256,-0.335C0.253,-0.335 0.251,-0.335 0.248,-0.337C0.245,-0.338 0.242,-0.338 0.239,-0.339C0.228,-0.343 0.222,-0.351 0.222,-0.364C0.222,-0.369 0.223,-0.374 0.226,-0.379L0.285,-0.492C0.251,-0.493 0.217,-0.492 0.184,-0.489C0.151,-0.486 0.117,-0.48 0.082,-0.473C0.071,-0.47 0.062,-0.473 0.057,-0.481C0.052,-0.489 0.049,-0.496 0.049,-0.501C0.049,-0.508 0.051,-0.515 0.056,-0.521C0.06,-0.526 0.066,-0.53 0.075,-0.532C0.098,-0.536 0.121,-0.539 0.143,-0.541C0.165,-0.543 0.19,-0.545 0.217,-0.546C0.244,-0.547 0.276,-0.547 0.314,-0.547L0.394,-0.7C0.399,-0.71 0.408,-0.715 0.419,-0.715C0.425,-0.715 0.43,-0.714 0.435,-0.712C0.44,-0.709 0.444,-0.705 0.447,-0.701C0.45,-0.696 0.451,-0.691 0.451,-0.686C0.451,-0.679 0.45,-0.675 0.447,-0.672L0.378,-0.541C0.448,-0.532 0.511,-0.514 0.568,-0.487C0.625,-0.46 0.67,-0.424 0.704,-0.379C0.737,-0.333 0.754,-0.28 0.754,-0.217C0.754,-0.16 0.741,-0.105 0.714,-0.052C0.687,0.002 0.654,0.053 0.615,0.1C0.609,0.107 0.603,0.11 0.596,0.11C0.589,0.11 0.582,0.107 0.576,0.101ZM0.91,-0.456L0.713,-0.584C0.708,-0.587 0.705,-0.591 0.703,-0.596C0.701,-0.601 0.7,-0.605 0.7,-0.61C0.7,-0.616 0.701,-0.621 0.704,-0.625C0.709,-0.634 0.717,-0.639 0.728,-0.639C0.734,-0.639 0.74,-0.637 0.745,-0.634L0.943,-0.506C0.952,-0.501 0.957,-0.494 0.957,-0.483C0.957,-0.478 0.955,-0.472 0.952,-0.464C0.945,-0.455 0.937,-0.451 0.928,-0.451C0.924,-0.451 0.918,-0.453 0.91,-0.456Z" style="fill:white;fill-rule:nonzero;"/>
    </g>
</svg>
